<?xml version="1.0" standalone="no"?><!DOCTYPE svg PUBLIC "-//W3C//DTD SVG 1.1//EN" "http://www.w3.org/Graphics/SVG/1.1/DTD/svg11.dtd"><svg t="1620786989676" class="icon" viewBox="0 0 1024 1024" version="1.1" xmlns="http://www.w3.org/2000/svg" p-id="8278" xmlns:xlink="http://www.w3.org/1999/xlink" width="200" height="200"><defs><style type="text/css"></style></defs><path d="M607.42 119.096v57.81h41.048c31.448 0 57.032 25.584 57.032 57.032v52.354h33.722a61.308 61.308 0 0 1 28.79 7.152V156.458c0-73.896-59.906-133.802-133.802-133.802h-77.576c30.648 21.138 50.786 56.476 50.786 96.44z" fill="#FB8801" p-id="8279"></path><path d="M284.778 286.294h33.722V233.94c0-31.448 25.584-57.032 57.032-57.032H609.42V119.096C609.42 53.322 556.098 0 490.324 0H266.29a10.3 10.3 0 0 0-10.302 10.302v283.144a61.308 61.308 0 0 1 28.79-7.152z" fill="#FE9901" p-id="8280"></path><path d="M284.778 284.294h31.722V233.94c0-20.118 10.072-37.876 25.44-48.534V10.302A10.3 10.3 0 0 1 352.242 0h-85.952a10.3 10.3 0 0 0-10.302 10.302v280.876a63.4 63.4 0 0 1 28.79-6.884z" fill="#FB8801" p-id="8281"></path><path d="M907.998 1024H116.002c-11.38 0-20.604-9.224-20.604-20.604v-297.74c0-51.206 41.51-92.716 92.716-92.716h647.77c51.206 0 92.716 41.51 92.716 92.716v297.742c0 11.378-9.224 20.602-20.602 20.602z" fill="#F3F0F3" p-id="8282"></path><path d="M190.798 1003.396v-297.74a92.278 92.278 0 0 1 17.606-54.332v-0.534c0-13.238 2.224-25.96 6.262-37.852H188.116c-51.206 0-92.716 41.51-92.716 92.716v297.742c0 11.378 9.224 20.604 20.604 20.604h95.4c-11.382 0-20.606-9.224-20.606-20.604z" fill="#E2DEE2" p-id="8283"></path><path d="M381.262 535.808a152.524 152.524 0 0 1-4.072-3.036h-50.766c-65.076 0-118.018 52.942-118.018 118.018v157.308c4.82-1.136 9.838-1.756 15-1.756s10.18 0.62 15 1.756v-157.308c0-48.534 39.484-88.018 88.018-88.018h46.392l9.686-26.074zM815.594 724.18v-73.39c0-65.076-52.942-118.018-118.018-118.018h-50.766a148.308 148.308 0 0 1-4.072 3.036l-1.24 0.89 9.686 26.074h46.392c48.534 0 88.018 39.484 88.018 88.018v73.39c-35.196 6.996-61.81 38.11-61.81 75.33v166.272a15 15 0 0 0 15 15h28.666a15 15 0 0 0 0-30h-13.666v-151.272c0-25.812 21-46.812 46.81-46.812s46.812 21 46.812 46.812v151.272h-13.666a15 15 0 0 0 0 30h28.666a15 15 0 0 0 15-15v-166.272c0-37.22-26.614-68.334-61.812-75.33z" fill="#A79BA7" p-id="8284"></path><path d="M223.404 871.706m-52.366 0a52.366 52.366 0 1 0 104.732 0 52.366 52.366 0 1 0-104.732 0Z" fill="#B5ADB6" p-id="8285"></path><path d="M213.498 871.706c0-21.36 12.796-39.722 31.136-47.868a52.144 52.144 0 0 0-21.23-4.498c-28.92 0-52.366 23.446-52.366 52.366 0 28.922 23.446 52.366 52.366 52.366 7.56 0 14.74-1.614 21.23-4.498-18.338-8.146-31.136-26.506-31.136-47.868z" fill="#A79BA7" p-id="8286"></path><path d="M223.406 939.072c-37.146 0-67.366-30.22-67.366-67.366s30.22-67.366 67.366-67.366 67.366 30.22 67.366 67.366-30.222 67.366-67.366 67.366z m0-104.732c-20.604 0-37.366 16.762-37.366 37.366s16.762 37.366 37.366 37.366 37.366-16.762 37.366-37.366-16.764-37.366-37.366-37.366z" fill="#554E56" p-id="8287"></path><path d="M409.268 551.602a150.636 150.636 0 0 1-28.428-16.172l-67.092 180.596a10.3 10.3 0 0 0 4.484 12.496l91.034 52.854V551.602z" fill="#CBC4CC" p-id="8288"></path><path d="M409.268 740.526l-2-6.064-90.336 73.12a10.304 10.304 0 0 0-2.89 12.288L407.268 1024l2-8.15z" fill="#E2DEE2" p-id="8289"></path><path d="M710.252 716.026l-67.09-180.596a150.636 150.636 0 0 1-28.428 16.172v229.774l91.034-52.854a10.304 10.304 0 0 0 4.484-12.496z" fill="#CBC4CC" p-id="8290"></path><path d="M707.068 807.58l-90.336-73.12-2 6.458v275.326l2 7.756 93.226-204.132a10.304 10.304 0 0 0-2.89-12.288z" fill="#E2DEE2" p-id="8291"></path><path d="M614.732 676.346l-94.564-87.832a11.96 11.96 0 0 0-8.166-3.208c-3.04 0-5.94 1.138-8.166 3.208l-94.564 87.832-2 4.588V1024h209.464V680.934z" fill="#8AC9FE" p-id="8292"></path><path d="M516.44 699.312c-1.328 0.85-2.864 1.298-4.44 1.298s-3.112-0.448-4.44-1.298l-25.108-16.062L455.862 1024h112.276l-26.588-340.75z" fill="#FD8087" p-id="8293"></path><path d="M517.552 701.048a10.304 10.304 0 0 1-11.102 0l-24.18-15.468L455.862 1024h42.76l25.53-327.174z" fill="#FE646F" p-id="8294"></path><path d="M520.166 588.514a11.96 11.96 0 0 0-8.166-3.208c-3.04 0-5.94 1.138-8.166 3.208l-50.646 47.04v25.782a10.3 10.3 0 0 0 4.75 8.678l48.512 31.034a10.3 10.3 0 0 0 11.104 0l48.512-31.034a10.3 10.3 0 0 0 4.75-8.678v-25.782z" fill="#FE646F" p-id="8295"></path><path d="M500.268 648.648a10.3 10.3 0 0 1-4.75-8.678v-41l-42.33 39.316v23.052a10.3 10.3 0 0 0 4.75 8.678l48.512 31.034a10.304 10.304 0 0 0 11.102 0l32.404-20.73a10.004 10.004 0 0 1-1.176-0.638z" fill="#FD4755" p-id="8296"></path><path d="M555.33 563.908h-86.66a149.24 149.24 0 0 1-61.402-13.18v130.208l97.926-90.954a10 10 0 0 1 13.61 0l97.926 90.954v-130.208a149.254 149.254 0 0 1-61.4 13.18z" fill="#60B7FF" p-id="8297"></path><path d="M318.5 413.738v-129.442h-33.722c-35.18 0-63.7 28.52-63.7 63.7v19.224c0 35.18 28.52 63.7 63.7 63.7h34.734a150.934 150.934 0 0 1-1.012-17.182z" fill="#FED2A4" p-id="8298"></path><path d="M739.222 284.294H705.5v129.442c0 5.812-0.366 11.54-1.012 17.182h34.734c35.18 0 63.7-28.52 63.7-63.7v-19.224c0-35.18-28.52-63.7-63.7-63.7z" fill="#FFBD86" p-id="8299"></path><path d="M555.33 565.908h-86.66c-84.042 0-152.17-68.128-152.17-152.17V233.94c0-32.602 26.43-59.032 59.032-59.032h272.936c32.602 0 59.032 26.43 59.032 59.032v179.798c0 84.04-68.128 152.17-152.17 152.17z" fill="#FED2A4" p-id="8300"></path><path d="M380.606 413.738V233.94c0-32.602 26.43-59.032 59.032-59.032h-64.106c-32.602 0-59.032 26.43-59.032 59.032v179.798c0 84.04 68.128 152.17 152.17 152.17h64.106c-84.042 0-152.17-68.13-152.17-152.17z" fill="#FFBD86" p-id="8301"></path><path d="M419.284 369.116a15 15 0 0 1-15-15v-44.22a15 15 0 0 1 30 0v44.22a15 15 0 0 1-15 15zM604.716 369.116a15 15 0 0 1-15-15v-44.22a15 15 0 0 1 30 0v44.22a15 15 0 0 1-15 15z" fill="#BB5D4C" p-id="8302"></path><path d="M512 413.336h-23.274a15 15 0 0 1-14.354-19.35l23.274-76.804a15 15 0 0 1 28.712 8.7l-17.41 57.454H512a15 15 0 0 1 0 30z" fill="#BB5D4C" p-id="8303"></path><path d="M512 499.102c-29.938 0-59.874-11.396-82.666-34.186a15 15 0 0 1 0-21.212 15 15 0 0 1 21.212 0c33.884 33.884 89.02 33.884 122.904 0a15 15 0 0 1 21.212 0 15 15 0 0 1 0 21.212c-22.788 22.792-52.724 34.186-82.662 34.186z" fill="#BB5D4C" p-id="8304"></path></svg>