<?xml version="1.0" standalone="no"?><!DOCTYPE svg PUBLIC "-//W3C//DTD SVG 1.1//EN" "http://www.w3.org/Graphics/SVG/1.1/DTD/svg11.dtd"><svg t="1620786424658" class="icon" viewBox="0 0 1024 1024" version="1.1" xmlns="http://www.w3.org/2000/svg" p-id="1940" xmlns:xlink="http://www.w3.org/1999/xlink" width="200" height="200"><defs><style type="text/css"></style></defs><path d="M392.533333 443.733333h34.133334c10.24 0 17.066667-6.826667 17.066666-17.066666s-6.826667-17.066667-17.066666-17.066667h-34.133334c-10.24 0-17.066667 6.826667-17.066666 17.066667s6.826667 17.066667 17.066666 17.066666zM631.466667 409.6h-34.133334c-10.24 0-17.066667 6.826667-17.066666 17.066667s6.826667 17.066667 17.066666 17.066666h34.133334c10.24 0 17.066667-6.826667 17.066666-17.066666s-6.826667-17.066667-17.066666-17.066667z" fill="" p-id="1941"></path><path d="M651.946667 696.32c10.24-6.826667 17.066667-13.653333 27.306666-23.893333l6.826667-6.826667 20.48-20.48c3.413333-3.413333 6.826667-6.826667 10.24-13.653333 6.826667-10.24 13.653333-20.48 17.066667-30.72 10.24-17.066667 17.066667-34.133333 23.893333-54.613334 34.133333 0 61.44-44.373333 61.44-102.4 0-17.066667-3.413333-34.133333-6.826667-47.786666 3.413333-20.48 6.826667-40.96 6.826667-58.026667s-6.826667-30.72-10.24-47.786667c-3.413333-6.826667-3.413333-13.653333-6.826667-20.48L785.066667 116.053333C774.826667 51.2 709.973333 0 634.88 0h-252.586667C310.613333 0 249.173333 51.2 238.933333 119.466667L204.8 269.653333c-3.413333 13.653333 0 30.72 3.413333 44.373334 3.413333 10.24 3.413333 17.066667 3.413334 23.893333v20.48c0 13.653333-3.413333 23.893333 0 37.546667-3.413333 13.653333-6.826667 30.72-6.826667 47.786666 0 58.026667 27.306667 102.4 61.44 102.4 17.066667 58.026667 44.373333 105.813333 78.506667 139.946667 6.826667 6.826667 13.653333 13.653333 20.48 17.066667 3.413333 3.413333 6.826667 3.413333 6.826666 6.826666 6.826667 3.413333 13.653333 6.826667 20.48 13.653334 3.413333 3.413333 10.24 3.413333 13.653334 6.826666 6.826667 3.413333 10.24 6.826667 17.066666 6.826667 6.826667 3.413333 13.653333 3.413333 20.48 6.826667 3.413333 0 10.24 3.413333 13.653334 3.413333 10.24 3.413333 23.893333 3.413333 37.546666 3.413333 54.613333 0 105.813333-20.48 153.6-54.613333h3.413334zM269.653333 512h-3.413333c-10.24 0-27.306667-27.306667-27.306667-68.266667 0-13.653333 3.413333-30.72 6.826667-40.96v-10.24c-3.413333-10.24 0-20.48 0-30.72v-23.893333c0-10.24-3.413333-20.48-3.413333-30.72 23.893333 13.653333 54.613333 20.48 95.573333 27.306667h3.413333c6.826667 0 10.24-3.413333 13.653334-6.826667 3.413333-3.413333 3.413333-10.24 3.413333-17.066667-10.24-23.893333-17.066667-47.786667-17.066667-71.68 0-95.573333 75.093333-170.666667 170.666667-170.666666s170.666667 75.093333 170.666667 170.666666c0 23.893333-6.826667 47.786667-17.066667 71.68-3.413333 6.826667-3.413333 13.653333 3.413333 17.066667 3.413333 3.413333 10.24 6.826667 17.066667 6.826667 37.546667-6.826667 68.266667-17.066667 88.746667-30.72 3.413333 13.653333 10.24 23.893333 10.24 34.133333 0 17.066667-3.413333 34.133333-6.826667 54.613333v10.24c3.413333 13.653333 6.826667 27.306667 6.826667 40.96 0 40.96-17.066667 68.266667-27.306667 68.266667h-3.413333c-3.413333-3.413333-10.24-3.413333-17.066667 0-3.413333 3.413333-10.24 6.826667-10.24 10.24-3.413333 13.653333-10.24 30.72-13.653333 44.373333L518.826667 477.866667c-3.413333-3.413333-10.24-3.413333-13.653334 0L307.2 563.2c-6.826667-13.653333-10.24-27.306667-13.653333-44.373333 0-6.826667-3.413333-10.24-10.24-10.24-3.413333 0-10.24 0-13.653334 3.413333zM310.613333 692.906667c-3.413333-3.413333-10.24-6.826667-17.066666-3.413334l-109.226667 37.546667c-102.4 37.546667-180.906667 157.013333-180.906667 279.893333-3.413333 10.24 3.413333 17.066667 13.653334 17.066667H477.866667v-242.346667c-61.44-6.826667-119.466667-37.546667-167.253334-88.746666zM829.44 727.04l-109.226667-37.546667c-6.826667-3.413333-13.653333 0-17.066666 3.413334C648.533333 750.933333 583.68 781.653333 512 785.066667v238.933333h494.933333c10.24 0 17.066667-6.826667 17.066667-17.066667 0-119.466667-85.333333-242.346667-194.56-279.893333zM768 887.466667H750.933333v17.066666c0 10.24-6.826667 17.066667-17.066666 17.066667s-17.066667-6.826667-17.066667-17.066667V887.466667h-17.066667c-10.24 0-17.066667-6.826667-17.066666-17.066667s6.826667-17.066667 17.066666-17.066667h17.066667v-17.066666c0-10.24 6.826667-17.066667 17.066667-17.066667s17.066667 6.826667 17.066666 17.066667v17.066666h17.066667c10.24 0 17.066667 6.826667 17.066667 17.066667s-6.826667 17.066667-17.066667 17.066667z" fill="" p-id="1942"></path><path d="M512 375.466667c75.093333 0 136.533333-61.44 136.533333-136.533334s-61.44-136.533333-136.533333-136.533333-136.533333 61.44-136.533333 136.533333 61.44 136.533333 136.533333 136.533334z m0-238.933334c58.026667 0 102.4 44.373333 102.4 102.4s-44.373333 102.4-102.4 102.4-102.4-44.373333-102.4-102.4 44.373333-102.4 102.4-102.4z" fill="" p-id="1943"></path><path d="M512 238.933333m-34.133333 0a34.133333 34.133333 0 1 0 68.266666 0 34.133333 34.133333 0 1 0-68.266666 0Z" fill="" p-id="1944"></path></svg>