<?xml version="1.0" standalone="no"?><!DOCTYPE svg PUBLIC "-//W3C//DTD SVG 1.1//EN" "http://www.w3.org/Graphics/SVG/1.1/DTD/svg11.dtd"><svg t="1620787280486" class="icon" viewBox="0 0 1024 1024" version="1.1" xmlns="http://www.w3.org/2000/svg" p-id="2033" xmlns:xlink="http://www.w3.org/1999/xlink" width="200" height="200"><defs><style type="text/css"></style></defs><path d="M88.64 809.504a381.336 94.504 0 1 0 762.672 0 381.336 94.504 0 1 0-762.672 0Z" fill="#B8CBCD" p-id="2034"></path><path d="M388.264 725.232c-74.032 74.04-194.064 74.04-268.096 0-74.04-74.032-74.04-194.064 0-268.096L369.776 207.52c74.032-74.024 194.064-74.032 268.096 0 74.04 74.032 74.032 194.064 0 268.096L388.264 725.232z" fill="#B9E3ED" p-id="2035"></path><path d="M254.216 804.76c-57.048 0-110.68-22.216-151.016-62.56-40.344-40.336-62.56-93.968-62.56-151.016 0-57.048 22.216-110.68 62.56-151.016L352.808 190.56C393.144 150.216 446.776 128 503.832 128c57.048 0 110.672 22.216 151.008 62.552 40.344 40.336 62.56 93.968 62.56 151.024 0 57.048-22.216 110.68-62.56 151.016L405.232 742.2c-40.336 40.344-93.968 62.56-151.016 62.56zM503.832 176a164.48 164.48 0 0 0-117.08 48.496L137.144 474.112a164.464 164.464 0 0 0-48.504 117.08 164.464 164.464 0 0 0 48.496 117.072 164.464 164.464 0 0 0 117.08 48.504 164.464 164.464 0 0 0 117.072-48.496l249.616-249.608a164.48 164.48 0 0 0 48.496-117.08 164.504 164.504 0 0 0-48.496-117.08A164.456 164.456 0 0 0 503.832 176z" fill="#324654" p-id="2036"></path><path d="M254.216 323.088L120.168 457.144c-74.04 74.032-74.04 194.064 0 268.096 74.032 74.04 194.064 74.04 268.096 0l134.048-134.048" fill="#FFFFFF" p-id="2037"></path><path d="M254.216 804.768c-57.048 0-110.68-22.216-151.016-62.56-40.344-40.344-62.56-93.976-62.56-151.024s22.216-110.68 62.56-151.016l151.016-151.024 33.944 33.944-151.016 151.024a164.464 164.464 0 0 0-48.504 117.08 164.464 164.464 0 0 0 48.496 117.072 164.464 164.464 0 0 0 117.08 48.504 164.44 164.44 0 0 0 117.072-48.504l151.024-151.016 33.944 33.944-151.024 151.008c-40.336 40.344-93.968 62.568-151.016 62.568z" fill="#324654" p-id="2038"></path><path d="M281.952 777.032c-57.048 0-110.68-22.216-151.016-62.56-40.336-40.336-62.56-93.968-62.56-151.016 0-57.04 22.216-110.68 62.56-151.024l151.016-151.016 33.944 33.944-151.024 151.008a164.536 164.536 0 0 0-48.504 117.088 164.44 164.44 0 0 0 48.504 117.072 164.464 164.464 0 0 0 117.08 48.504 164.504 164.504 0 0 0 117.088-48.504l151.016-151.016L584 563.456 432.976 714.472c-40.344 40.344-93.976 62.56-151.024 62.56z" fill="#324654" p-id="2039"></path><path d="M249.6 305.08l286.096 286.104-22.624 22.624L226.96 327.704z" fill="#324654" p-id="2040"></path><path d="M720.528 553.864l-79.12 79.12c-43.696 43.704-43.696 114.544 0 158.24s114.536 43.696 158.24 0l79.12-79.12" fill="#FFBAB0" p-id="2041"></path><path d="M772.536 818.336c-43.696 43.704-114.536 43.704-158.232 0-43.704-43.696-43.704-114.536 0-158.232l147.32-147.328c43.704-43.696 114.544-43.696 158.24 0 43.704 43.696 43.696 114.536 0 158.232l-147.328 147.328z" fill="#FFFFFF" p-id="2042"></path><path d="M693.416 875.112a134.984 134.984 0 0 1-96.088-39.808 134.984 134.984 0 0 1-39.808-96.088c0-36.296 14.136-70.424 39.808-96.088l147.32-147.32C770.32 470.136 804.448 456 840.744 456s70.424 14.136 96.088 39.8a134.984 134.984 0 0 1 39.808 96.088c0 36.296-14.136 70.424-39.808 96.088l-147.328 147.328a134.96 134.96 0 0 1-96.088 39.808zM840.744 504a87.36 87.36 0 0 0-62.16 25.744L631.272 677.072a87.296 87.296 0 0 0-25.752 62.152c0 23.48 9.144 45.544 25.744 62.144a87.296 87.296 0 0 0 62.152 25.752c23.48 0 45.544-9.144 62.144-25.744l147.336-147.328a87.32 87.32 0 0 0 25.744-62.152c0-23.472-9.144-45.544-25.744-62.144A87.296 87.296 0 0 0 840.744 504z" fill="#783741" p-id="2043"></path><path d="M693.416 580.976l-79.12 79.128c-43.704 43.696-43.704 114.536 0 158.232 43.696 43.704 114.536 43.704 158.232 0l79.12-79.12" fill="#FFBAB0" p-id="2044"></path><path d="M693.416 875.112a134.984 134.984 0 0 1-96.088-39.808 134.984 134.984 0 0 1-39.808-96.088c0-36.296 14.136-70.424 39.808-96.088l79.112-79.12a24 24 0 0 1 33.944 33.944l-79.12 79.128a87.296 87.296 0 0 0-25.752 62.152c0 23.48 9.144 45.544 25.744 62.144a87.296 87.296 0 0 0 62.152 25.752c23.48 0 45.544-9.144 62.144-25.744l79.12-79.12a23.984 23.984 0 0 1 33.936 0 23.984 23.984 0 0 1 0 33.936l-79.12 79.12a134.96 134.96 0 0 1-96.072 39.792z" fill="#783741" p-id="2045"></path><path d="M720.528 847.936a135.4 135.4 0 0 1-96.088-39.736c-52.984-52.976-52.984-139.192 0-192.176l79.12-79.12a23.984 23.984 0 0 1 33.936 0 23.984 23.984 0 0 1 0 33.936l-79.12 79.12c-34.264 34.272-34.264 90.032 0 124.304 34.272 34.264 90.024 34.264 124.304-0.008l79.12-79.112a23.984 23.984 0 0 1 33.936 0 23.984 23.984 0 0 1 0 33.936l-79.12 79.12a135.52 135.52 0 0 1-96.088 39.736z" fill="#783741" p-id="2046"></path><path d="M690.712 561.064l178.136 178.144-22.624 22.624L668.08 583.696z" fill="#783741" p-id="2047"></path><path d="M876.64 220m-108 0a108 108 0 1 0 216 0 108 108 0 1 0-216 0Z" fill="#F6E89A" p-id="2048"></path><path d="M876.64 352c-72.784 0-132-59.216-132-132s59.216-132 132-132c72.784 0 132 59.216 132 132S949.424 352 876.64 352z m0-216c-46.32 0-84 37.68-84 84s37.68 84 84 84 84-37.68 84-84-37.688-84-84-84z" fill="#8D4520" p-id="2049"></path><path d="M800.64 296l140-140" fill="#F6E89A" p-id="2050"></path><path d="M800.64 312a16 16 0 0 1-11.312-27.312l140-140a16 16 0 1 1 22.624 22.624l-140 140c-3.12 3.128-7.224 4.688-11.312 4.688z" fill="#8D4520" p-id="2051"></path></svg>