<?xml version="1.0" standalone="no"?><!DOCTYPE svg PUBLIC "-//W3C//DTD SVG 1.1//EN" "http://www.w3.org/Graphics/SVG/1.1/DTD/svg11.dtd"><svg t="1620787048882" class="icon" viewBox="0 0 1024 1024" version="1.1" xmlns="http://www.w3.org/2000/svg" p-id="21652" xmlns:xlink="http://www.w3.org/1999/xlink" width="200" height="200"><defs><style type="text/css"></style></defs><path d="M944.738 326.116l-62.224 339.416-17.228 270.37H1024z" fill="#909BA5" p-id="21653"></path><path d="M926.178 183.342l-72.914 421.472-25.14 331.088h37.162l79.452-609.786z" fill="#808B95" p-id="21654"></path><path d="M81.638 380.324L0 935.9h828.124l72.39-555.576-408.578-18z" fill="#E7ECF1" p-id="21655"></path><path d="M110.584 183.342l-18.024 122.66 386.952 19.162 430.684-19.162 15.982-122.66z" fill="#DC4955" p-id="21656"></path><path d="M92.56 306.002l-5.462 37.162 404.838 18 413.418-18 4.842-37.162z" fill="#D82F3C" p-id="21657"></path><path d="M734.75 778.604l8.9-60.572-15.66-15.92 20.212-15.046 12.086-82.25-15.776-15.132 20.328-15.836 12.624-85.912a10.322 10.322 0 0 0-10.212-11.824h-92.44l-13.818 18-17.482-18h-88.74l-15.846 18-15.454-18h-88.742l-16.872 18-14.428-18h-88.74l-17.9 18-13.4-18H187.908a10.32 10.32 0 0 0-10.212 8.822l-13.066 88.912 15.604 16.304-20.154 14.664-12.086 82.25 15.582 16.46-20.132 14.508-8.9 60.572 298.186 18z" fill="#9EC8FC" p-id="21658"></path><path d="M134.542 778.604l-3.724 25.338a10.322 10.322 0 0 0 10.212 11.824h92.44l18.38-18 12.92 18h88.742l18.38-18 12.92 18h88.74l18.38-18 12.92 18h88.74l15.766-18 15.534 18h95.476a10.32 10.32 0 0 0 10.212-8.822l4.164-28.34z" fill="#80B6FC" p-id="21659"></path><path d="M760.288 604.814l4.55-30.968h-104.392l14.362-97.734h-31.302l-14.362 97.734h-88.74l14.362-97.734h-31.3l-14.362 97.734h-88.74l14.362-97.734h-31.3l-14.362 97.734h-88.74l14.362-97.734h-31.302l-14.362 97.734H164.63l-4.55 30.968h104.39l-12.086 82.25H147.992l-4.55 30.968h104.392l-8.902 60.572 12.516 18 18.784-18 8.9-60.572h88.742l-8.9 60.572 12.516 18 18.808-18.158 8.878-60.414h88.74l-8.9 60.572 12.516 18 18.784-18 8.9-60.572h88.74l-8.9 60.572 12.516 18 18.784-18 8.902-60.572h104.392l4.55-30.968h-104.392l12.086-82.25z m-387.862 82.25h-88.74l12.086-82.25h88.74z m120.042 0h-88.74l12.086-82.25h88.742z m120.04 0h-88.74l12.086-82.25h88.74z" fill="#6EAAF3" p-id="21660"></path><path d="M510.316 778.604h-31.3l-5.46 37.162h31.3zM270.234 778.604h-31.302l-5.46 37.162h31.3zM599.058 778.604l-5.462 37.162h31.302l5.46-37.162zM390.276 778.604h-31.302l-5.46 37.162h31.3z" fill="#5D9EE6" p-id="21661"></path><path d="M272.146 259.304c20.978 0 37.984-35.004 37.984-55.982v-77.24c0-20.978-17.006-37.984-37.984-37.984s-37.984 17.006-37.984 37.984v77.238c0 20.98 17.006 55.984 37.984 55.984z" fill="#F6E080" p-id="21662"></path><path d="M272.146 241.304c-20.978 0-37.984-17.006-37.984-37.984v37.162c0 20.978 17.006 37.984 37.984 37.984s37.984-17.006 37.984-37.984V203.32c0 20.978-17.006 37.984-37.984 37.984z" fill="#ECCD61" p-id="21663"></path><path d="M754.034 259.304c20.978 0 37.984-35.004 37.984-55.982v-77.24c0-20.978-17.006-37.984-37.984-37.984s-37.984 17.006-37.984 37.984v77.238c0 20.98 17.006 55.984 37.984 55.984z" fill="#F6E080" p-id="21664"></path><path d="M754.034 241.304c-20.978 0-37.984-17.006-37.984-37.984v37.162c0 20.978 17.006 37.984 37.984 37.984s37.984-17.006 37.984-37.984V203.32c0 20.978-17.006 37.984-37.984 37.984z" fill="#ECCD61" p-id="21665"></path><path d="M87.098 343.164l-5.46 37.16h818.874l4.842-37.16z" fill="#C6D0DA" p-id="21666"></path></svg>