<?xml version="1.0" standalone="no"?><!DOCTYPE svg PUBLIC "-//W3C//DTD SVG 1.1//EN" "http://www.w3.org/Graphics/SVG/1.1/DTD/svg11.dtd"><svg t="1620787231626" class="icon" viewBox="0 0 1024 1024" version="1.1" xmlns="http://www.w3.org/2000/svg" p-id="40494" xmlns:xlink="http://www.w3.org/1999/xlink" width="200" height="200"><defs><style type="text/css"></style></defs><path d="M14.205431 91.126328m209.605667 0l576.377804 0q209.605667 0 209.605667 209.605667l0 513.662338q0 209.605667-209.605667 209.605667l-576.377804 0q-209.605667 0-209.605667-209.605667l0-513.662338q0-209.605667 209.605667-209.605667Z" fill="#EA5D5B" p-id="40495"></path><path d="M14.205431 325.969303h995.589138v90.672964H14.205431z" fill="#F5B4B5" p-id="40496"></path><path d="M246.781582 0m45.336482 0l0 0q45.336482 0 45.336481 45.336482l0 143.414403q0 45.336482-45.336481 45.336482l0 0q-45.336482 0-45.336482-45.336482l0-143.414403q0-45.336482 45.336482-45.336482Z" fill="#F5B4B5" p-id="40497"></path><path d="M701.053129 0m45.336481 0l0 0q45.336482 0 45.336482 45.336482l0 143.414403q0 45.336482-45.336482 45.336482l0 0q-45.336482 0-45.336481-45.336482l0-143.414403q0-45.336482 45.336481-45.336482Z" fill="#F5B4B5" p-id="40498"></path><path d="M453.818182 805.024793a45.336482 45.336482 0 0 1-31.584416-13.298701l-101.70484-101.704841a45.336482 45.336482 0 0 1 64.07556-64.07556L453.818182 695.159386l199.329398-199.027155a45.336482 45.336482 0 0 1 64.226682 64.075561L485.855962 791.726092a45.336482 45.336482 0 0 1-32.03778 13.298701z" fill="#FAD8D7" p-id="40499"></path></svg>