<?xml version="1.0" standalone="no"?><!DOCTYPE svg PUBLIC "-//W3C//DTD SVG 1.1//EN" "http://www.w3.org/Graphics/SVG/1.1/DTD/svg11.dtd"><svg t="1620787218503" class="icon" viewBox="0 0 1198 1024" version="1.1" xmlns="http://www.w3.org/2000/svg" p-id="40341" xmlns:xlink="http://www.w3.org/1999/xlink" width="233.984375" height="200"><defs><style type="text/css"></style></defs><path d="M0 0m209.160294 0l368.207556 0q209.160294 0 209.160293 209.160294l0 358.842169q0 209.160294-209.160293 209.160294l-368.207556 0q-209.160294 0-209.160294-209.160294l0-358.842169q0-209.160294 209.160294-209.160294Z" fill="#A1D4F3" p-id="40342"></path><path d="M0 189.607996m209.160294 0l761.389475 0q209.160294 0 209.160294 209.160294l0 400.08273q0 209.160294-209.160294 209.160294l-761.389475 0q-209.160294 0-209.160294-209.160294l0-400.08273q0-209.160294 209.160294-209.160294Z" fill="#67BAE9" p-id="40343"></path><path d="M724.420845 549.600301H639.146538v-85.274307a49.291507 49.291507 0 1 0-98.583013 0v85.274307h-85.274307a49.291507 49.291507 0 0 0-49.291507 49.291507 49.291507 49.291507 0 0 0 49.291507 49.291506h85.274307v85.274307a49.291507 49.291507 0 0 0 98.583013 0v-85.274307h85.274307a49.291507 49.291507 0 0 0 49.291507-49.291506 49.291507 49.291507 0 0 0-49.291507-49.291507z" fill="#E0F2FB" p-id="40344"></path></svg>